<svg width="428" height="408" viewBox="0 0 428 408" fill="none" xmlns="http://www.w3.org/2000/svg">
<path d="M208.768 93.533C230.457 93.533 251.258 102.149 266.595 117.486C281.932 132.823 290.548 153.624 290.548 175.313V235.697C290.548 241.12 289.48 246.49 287.404 251.5C285.329 256.511 282.287 261.063 278.452 264.898C274.618 268.733 270.065 271.774 265.055 273.85C260.045 275.925 254.675 276.993 249.252 276.993H168.261C157.309 276.993 146.805 272.642 139.06 264.898C131.316 257.153 126.965 246.65 126.965 235.697V175.335C126.965 153.646 135.581 132.845 150.918 117.508C166.255 102.171 187.056 93.5552 208.745 93.5552L208.768 93.533Z" fill="#EEEEEB"/>
<path fill-rule="evenodd" clip-rule="evenodd" d="M238.442 110.774C239.8 114.98 237.747 122.078 235.967 123.163C233.775 124.498 227.093 122.724 224.017 119.553C220.779 116.215 221.491 110.251 229.14 111.764C231.288 104.448 237.102 106.629 238.442 110.774Z" fill="#EB444A"/>
<path fill-rule="evenodd" clip-rule="evenodd" d="M180.111 150.729C180.528 156.548 175.66 164.999 173.046 165.828C169.813 166.852 161.813 162.49 158.865 157.45C155.766 152.153 158.553 144.732 167.883 149.071C172.929 140.376 179.694 145.016 180.111 150.729Z" fill="#EB444A"/>
<path fill-rule="evenodd" clip-rule="evenodd" d="M250.075 124.264C247.794 125.644 243.338 125.416 242.459 124.52C241.346 123.408 241.485 119.246 242.926 116.999C244.439 114.634 248.044 114.217 248.217 118.935C252.807 119.185 252.328 122.907 250.075 124.264Z" fill="#EB444A"/>
<path fill-rule="evenodd" clip-rule="evenodd" d="M193.686 141.678C192.245 143.903 188.156 145.694 186.965 145.283C185.502 144.771 183.761 140.982 184.056 138.329C184.367 135.547 187.422 133.577 189.658 137.722C193.886 135.925 195.105 139.452 193.686 141.678Z" fill="#EB444A"/>
<path d="M178.052 264.932C178.052 264.932 153.39 266.306 148.906 247.508C145.429 232.932 159.354 214.128 166.803 202.518C167.966 200.704 165.602 198.584 163.76 199.736C158.916 202.711 154.516 206.356 150.692 210.562C136.606 226.139 129.346 252.559 141.936 265.155C154.525 277.75 181.101 269.666 181.101 269.666L178.052 264.932Z" fill="#9A4912"/>
<path d="M191.21 272.754C196.272 273.956 220.467 272.904 227.555 272.665C228.152 272.648 228.732 272.458 229.223 272.117C229.714 271.776 230.095 271.3 230.32 270.746C230.781 269.6 230.876 268.164 229.146 267.174C225.875 265.283 218.876 263.786 218.876 263.786C220.941 262.951 222.791 261.663 224.29 260.016C225.79 258.369 226.9 256.406 227.538 254.273C227.538 254.273 229.819 247.252 226.153 240.921C222.487 234.59 220.439 234.568 220.439 234.568L193.057 253.95V263.408L191.21 272.754Z" fill="#AE5214"/>
<path d="M253.274 135.558C250.52 135.751 247.786 134.963 245.558 133.333C241.195 130.255 235.908 128.768 230.581 129.121C218.481 129.811 210.654 140.843 210.654 150.518C210.654 166.167 229.063 178.941 216.645 187.285C184.757 208.704 162.631 231.235 164.05 250.657C165.469 270.078 175.8 274.829 181.563 276.198C186.62 277.4 210.821 276.348 217.908 276.109C218.5 276.088 219.073 275.897 219.558 275.559C220.044 275.22 220.422 274.749 220.645 274.201C221.113 273.049 220.729 271.419 218.275 270.017C215.004 268.131 209.202 267.235 209.202 267.235C209.202 267.235 217.385 263.547 217.908 257.717C218.348 252.76 217.908 252.276 217.908 252.276L234.526 242.679C234.526 242.679 237.218 265.878 237.218 269.138C237.218 272.398 237.836 277.516 240.211 278.117C242.587 278.718 249.157 279.597 250.654 277.005C252.15 274.412 248.195 272.164 246.759 271.324C245.324 270.484 247.694 258.941 247.694 258.941L246.453 271.998C246.453 271.998 245.463 277.005 249.491 276.954C253.241 276.91 256.617 277.205 257.836 275.085C259.054 272.966 253.541 270.078 253.541 270.078C253.541 270.078 257.736 234.162 258.481 225.655C260.056 207.792 260.367 203.675 253.636 182.095C250.264 171.291 255.95 160.142 260.156 157.717C264.362 155.291 269.307 149.477 269.307 144.432C269.307 139.386 267.95 135.046 263.054 135.046C260.406 135.063 256.395 135.313 253.274 135.558Z" fill="#BA5F17"/>
<path d="M227.566 148.938C227.566 148.938 236.111 181.205 231.622 188.993C227.132 196.782 220.673 197.338 214.309 193.672C207.944 190.006 208.907 175.953 210.292 165.043C211.677 154.134 213.869 147.697 215.477 146.089C220.089 141.466 226.236 142.078 227.566 148.938Z" fill="#9A4912"/>
<path d="M262.187 135.074C262.187 135.074 264.968 141.244 269.302 142C269.302 142 270.259 138.156 268.351 136.242C266.443 134.328 262.187 135.074 262.187 135.074Z" fill="#222C38"/>
<path d="M218.575 253.366C218.437 253.367 218.303 253.316 218.2 253.223C218.097 253.131 218.033 253.003 218.019 252.865C217.312 244.487 209.49 239.786 209.413 239.741C209.316 239.656 209.252 239.539 209.232 239.411C209.212 239.284 209.237 239.153 209.303 239.042C209.369 238.931 209.471 238.846 209.593 238.802C209.714 238.758 209.847 238.758 209.969 238.801C210.308 239.007 218.358 243.842 219.109 252.776C219.117 252.919 219.07 253.058 218.978 253.167C218.886 253.276 218.756 253.345 218.614 253.36L218.575 253.366Z" fill="#AE5214"/>
<path d="M253.641 222.768L247.672 258.929L246.398 270.451C246.368 270.701 246.416 270.953 246.536 271.174C246.655 271.395 246.84 271.574 247.065 271.686C248.584 272.459 251.761 274.423 250.653 276.993C251.538 276.993 252.322 276.915 252.823 276.915C253.207 272.749 248.206 270.507 248.206 270.507L253.641 222.768Z" fill="#AE5214"/>
<path d="M236.996 141.811C237.997 141.305 239.36 141.995 240.039 143.341C240.718 144.687 240.451 146.195 239.444 146.679C238.437 147.163 237.079 146.501 236.401 145.149C235.722 143.797 235.972 142.312 236.996 141.811Z" fill="#1B2E35"/>
<path d="M267.082 150.301C266.502 150.434 265.909 150.504 265.313 150.507C263.451 150.448 261.628 149.956 259.989 149.071C259.901 149.028 259.823 148.968 259.759 148.893C259.695 148.819 259.647 148.732 259.618 148.639C259.589 148.545 259.579 148.447 259.59 148.349C259.6 148.252 259.631 148.157 259.679 148.072C259.727 147.987 259.793 147.912 259.871 147.853C259.949 147.794 260.039 147.752 260.134 147.729C260.229 147.706 260.328 147.702 260.425 147.719C260.521 147.735 260.613 147.772 260.696 147.825C260.735 147.825 264.935 150.184 268.034 148.381C268.117 148.331 268.351 148.248 268.423 148.203C268.061 148.954 267.611 149.658 267.082 150.301Z" fill="#AE5214"/>
<path d="M160.979 193.065C160.979 193.065 161.452 185.605 163.076 180.793C163.471 179.491 164.087 178.266 164.895 177.171C164.98 177.066 165.087 176.98 165.208 176.921C165.329 176.861 165.462 176.828 165.597 176.825C165.732 176.822 165.866 176.848 165.99 176.902C166.114 176.956 166.224 177.037 166.314 177.138L175.582 187.48C175.582 187.48 162.069 191.191 160.979 193.065Z" fill="#FFFDFF"/>
<path d="M165.608 179.552C166.815 181.917 168.69 185.833 170.409 186.89C170.409 186.89 166.715 187.936 161.719 192.12C161.719 192.12 163.049 183.079 164.228 180.259C164.756 178.979 165.263 178.89 165.608 179.552Z" fill="#FFC7BD"/>
<path d="M155.471 207.113C156.467 220.131 168.267 223.107 168.267 223.107C168.267 223.107 167.071 236.643 169.28 243.263C171.488 249.883 176.328 264.504 174.036 268.47C171.744 272.437 169.524 271.002 169.241 273.883C168.957 276.765 170.476 278.395 180.15 278.395C189.825 278.395 203.572 276.359 203.572 276.359C209.252 279.641 225.508 278.284 229.285 276.103C233.063 273.922 237.686 260.32 229.285 248.843C220.885 237.366 213.302 236.298 207.9 230.89C202.498 225.483 200.067 216.576 201.28 214.473C202.492 212.37 204.228 203.386 201.152 198.056C198.075 192.726 188.167 184.876 179.004 184.876C169.841 184.876 154.337 192.303 155.471 207.113Z" fill="#FFFDFF"/>
<path d="M199.399 196.938C199.399 196.938 199.917 190 198.993 185.01C198.789 183.664 198.354 182.364 197.708 181.166C197.638 181.05 197.544 180.951 197.433 180.875C197.321 180.799 197.194 180.748 197.061 180.726C196.928 180.704 196.791 180.711 196.661 180.746C196.531 180.782 196.409 180.845 196.306 180.932L184.885 189.071C184.885 189.071 198.609 194.913 199.399 196.938Z" fill="#FFFDFF"/>
<path d="M195.533 183.402C192.673 185.867 190.698 187.513 189.129 188.604C192.118 190.303 194.798 192.494 197.057 195.085C197.057 195.085 197.769 187.002 197.085 184.231C196.751 182.846 196.1 182.935 195.533 183.402Z" fill="#FFC7BD"/>
<path d="M174.342 205.522C174.342 206.367 173.424 207.052 172.289 207.052C171.154 207.052 170.237 206.367 170.237 205.522C170.237 204.676 171.154 203.992 172.289 203.992C173.424 203.992 174.342 204.676 174.342 205.522Z" fill="#FFC7BD"/>
<path d="M182.598 201.944C183.444 201.944 184.128 202.862 184.128 203.992C184.128 205.121 183.444 206.044 182.598 206.044C181.753 206.044 181.074 205.127 181.074 203.992C181.074 202.857 181.758 201.944 182.598 201.944Z" fill="#1B2E35"/>
<path d="M165.185 204.804C166.03 204.804 166.715 203.885 166.715 202.752C166.715 201.618 166.03 200.699 165.185 200.699C164.34 200.699 163.655 201.618 163.655 202.752C163.655 203.885 164.34 204.804 165.185 204.804Z" fill="#1B2E35"/>
<path d="M182.598 224.298C182.598 224.298 178.748 230.462 178.748 241.355C179.304 249.399 180.183 253.683 176.818 258.907C175.017 254.726 173 250.64 170.776 246.668C168.623 242.885 166.709 234.512 168.284 223.102C168.284 223.107 175.149 225.5 182.598 224.298Z" fill="#FBE4DC"/>
<path d="M202.887 276.476C202.535 276.159 202.259 275.765 202.079 275.326C201.9 274.887 201.823 274.413 201.852 273.939C201.852 270.879 206.526 270.557 208.272 270.423C208.362 269.867 208.428 268.131 208.64 265.261C209.285 256.459 215.377 253.416 215.644 253.277C216.017 253.083 216.4 253.027 216.595 253.405C216.637 253.489 216.66 253.58 216.663 253.673C216.667 253.766 216.65 253.859 216.615 253.946C216.58 254.032 216.526 254.11 216.459 254.174C216.391 254.238 216.311 254.287 216.222 254.318C215.989 254.44 210.42 257.45 209.841 265.372C209.441 270.879 209.224 271.058 208.957 271.286L208.439 271.469C206.615 271.542 203.177 272.209 202.948 273.817C202.72 275.425 203.31 276.087 203.588 276.359" fill="#FBE4DC"/>
<path d="M174.342 278.089C173.667 277.527 173.225 276.734 173.102 275.864C173.093 275.705 173.093 275.545 173.102 275.386C173.102 273.038 173.769 271.569 177.285 270.54C179.661 269.845 181.619 262.579 181.619 251.625C181.619 246.818 181.88 235.452 181.892 235.336C181.919 234.93 182.064 234.651 182.325 234.651C182.587 234.651 182.654 235.03 182.626 235.436C182.626 235.553 182.554 247.18 182.554 251.936C182.554 264.281 180.918 270.624 177.697 271.569C174.72 272.437 174.164 273.795 174.164 275.386C174.158 275.484 174.158 275.582 174.164 275.681C174.231 276.198 174.765 277.728 175.527 278.267" fill="#FBE4DC"/>
<path d="M181.825 278.395C184.74 277.7 185.358 274.117 185.964 272.799C186.246 272.043 186.642 271.336 187.138 270.701C187.945 269.65 198.109 249.694 198.732 242.601C198.771 242.201 198.832 241.794 199.227 241.828C199.622 241.861 199.55 242.223 199.516 242.629C198.86 250.106 189.091 270.829 188.178 271.742C187.836 272.269 187.543 272.828 187.305 273.411C186.643 274.829 185.825 276.604 184.74 277.689C184.479 277.965 184.162 278.183 183.811 278.329" fill="#FBE4DC"/>
<path d="M236.2 275.408C233.213 275.408 230.281 273.839 229.836 273.588C229.323 273.284 228.949 272.791 228.794 272.216C228.639 271.64 228.714 271.026 229.003 270.505C229.293 269.984 229.774 269.596 230.345 269.424C230.916 269.251 231.532 269.309 232.061 269.583C233.574 270.423 236.267 271.252 237.174 270.607C237.702 270.228 238.097 268.637 237.48 265.433C230.248 227.786 231.555 207.97 241.53 204.86C245.68 203.569 248.935 204.008 251.21 206.167C256.122 210.835 253.53 221.672 253.218 222.89C253.071 223.48 252.695 223.988 252.173 224.301C251.651 224.614 251.027 224.707 250.437 224.559C249.846 224.412 249.339 224.036 249.026 223.514C248.713 222.992 248.62 222.368 248.768 221.778C249.541 218.734 250.375 211.725 248.039 209.511C247.06 208.581 245.33 208.498 242.882 209.26C239.605 210.284 232.946 217.722 241.969 264.587C242.893 269.377 242.175 272.659 239.844 274.345C238.773 275.076 237.497 275.449 236.2 275.408Z" fill="#FFFDFF"/>
<path d="M235.249 270.774C235.249 270.774 234.465 274.006 233.146 274.896L231.115 274.223C231.115 274.223 232.668 271.775 233.024 270.039L235.249 270.774Z" fill="#FBE4DC"/>
<path d="M176.818 258.907C176.818 258.907 178.726 265.961 177.842 270.212C177.564 271.536 175.961 271.697 175.961 271.697C175.961 271.697 176.913 267.875 176.913 266.295C176.913 264.715 176.818 258.907 176.818 258.907Z" fill="#FBE4DC"/>
<path d="M126.704 224.787C126.704 224.787 120.723 315.102 205.841 315.102V291.369C205.841 291.369 206.27 267.391 187.182 261.36C164.373 254.156 160.317 234.412 152.846 239.713C145.808 244.72 155.071 266.584 177.48 276.286C177.48 276.286 162.604 272.949 152.679 260.376C147.166 253.388 144.89 240.348 140.701 232.887C136.918 226.161 131.293 224.67 126.704 224.787Z" fill="#EB444A"/>
<path d="M290.125 224.787C290.125 224.787 296.095 315.102 211.01 315.102V291.369C211.01 291.369 210.582 267.391 229.669 261.36C252.479 254.156 256.534 234.412 264 239.713C271.038 244.72 261.775 266.584 239.372 276.286C239.372 276.286 254.248 272.949 264.167 260.376C269.686 253.388 271.956 240.348 276.145 232.887C279.911 226.161 285.558 224.67 290.125 224.787Z" fill="#EB444A"/>
<path d="M161.074 93.2385C160.147 93.031 159.499 92.4096 159.129 91.3744C158.759 90.3392 158.953 88.4961 159.713 85.8453C159.909 85.012 160.485 84.4246 161.44 84.0832C162.436 83.7276 163.947 83.7488 165.975 84.1467C167.989 84.5049 169.673 84.4421 171.026 83.9585C173.455 83.0907 174.499 82.1791 174.157 81.2235C173.887 80.467 172.354 80.3861 169.558 80.9808C166.922 81.5187 164.099 81.472 161.09 80.841C159.679 80.5368 158.325 79.7633 157.028 78.5206C155.717 77.238 154.684 75.5416 153.931 73.4314C151.683 67.1404 154.879 62.4515 163.519 59.3647C166.346 58.3547 169.495 57.9932 172.965 58.2801C174.586 58.4193 175.567 58.9667 175.908 59.9222C176.25 60.8778 176.232 62.2089 175.853 63.9154C175.475 65.6219 174.828 66.6388 173.913 66.9659C173.435 67.1366 172.432 67.1581 170.905 67.0303C169.417 66.8882 167.917 67.0875 166.404 67.628C164.055 68.4673 163.037 69.3249 163.35 70.2008C163.777 71.3953 165.408 71.6881 168.243 71.0792C170.971 70.419 173.789 70.2651 176.699 70.6175C178.053 70.7624 179.357 71.3965 180.611 72.5198C181.891 73.589 182.901 75.1589 183.641 77.2293C184.38 79.2998 184.615 81.2138 184.345 82.9715C184.101 84.6752 183.41 86.1343 182.272 87.3489C180.165 89.4936 177.18 91.2558 173.318 92.6356C169.496 94.0012 165.414 94.2022 161.074 93.2385Z" fill="#EB444A"/>
<path d="M186.905 69.6815C186.753 64.6078 188.403 60.3687 191.856 56.9642C195.309 53.5598 199.318 51.789 203.884 51.652C208.451 51.5151 212.538 53.0429 216.146 56.2355C219.753 59.3859 221.633 63.4979 221.785 68.5716C221.89 72.0809 221.075 75.237 219.34 78.0398C217.603 80.8003 215.443 82.8753 212.861 84.2646C210.32 85.6104 207.654 86.3252 204.864 86.4089C202.073 86.4926 199.347 85.8973 196.685 84.6229C194.021 83.3063 191.741 81.3434 189.843 78.7343C187.986 76.0816 187.007 73.064 186.905 69.6815ZM200.297 73.8502C201.681 74.8243 203.07 75.2905 204.465 75.2486C205.861 75.2068 207.24 74.6364 208.604 73.5375C209.967 72.4386 210.618 70.8533 210.556 68.7815C210.494 66.7098 209.792 65.1862 208.451 64.2108C207.11 63.2353 205.678 62.7705 204.156 62.8161C202.634 62.8618 201.233 63.4328 199.954 64.5291C198.675 65.6255 198.067 67.2095 198.129 69.2813C198.19 71.3108 198.913 72.8337 200.297 73.8502Z" fill="#EB444A"/>
<path d="M224.674 83.5324C224.05 82.8124 223.897 81.9247 224.216 80.8693C224.535 79.814 225.79 78.4437 227.983 76.7584C228.638 76.2032 229.452 76.0728 230.426 76.3671C231.441 76.6736 232.647 77.5917 234.046 79.1215C235.456 80.6106 236.851 81.5636 238.231 81.9805C240.707 82.7284 242.093 82.6153 242.387 81.6412C242.62 80.87 241.432 79.891 238.823 78.7041C236.376 77.5664 234.127 75.8462 232.076 73.5435C231.12 72.4573 230.489 71.0266 230.184 69.2512C229.891 67.4352 230.069 65.4516 230.719 63.3003C232.657 56.8872 238.029 55.011 246.837 57.6717C249.719 58.5423 252.474 60.1274 255.101 62.427C256.325 63.5056 256.79 64.532 256.496 65.5061C256.202 66.4803 255.394 67.5428 254.072 68.6937C252.749 69.8446 251.622 70.279 250.688 69.997C250.201 69.8499 249.38 69.2696 248.224 68.2561C247.109 67.2549 245.781 66.5213 244.238 66.0554C241.843 65.3319 240.511 65.4167 240.241 66.3097C239.873 67.5274 241.014 68.7358 243.664 69.9349C246.257 71.0282 248.622 72.5842 250.758 74.6027C251.764 75.5265 252.438 76.8152 252.78 78.4688C253.175 80.0941 253.053 81.9621 252.416 84.0728C251.778 86.1834 250.827 87.8671 249.561 89.1236C248.348 90.3519 246.921 91.1168 245.28 91.4182C242.302 91.8918 238.845 91.5339 234.908 90.3445C231.011 89.1674 227.6 86.8967 224.674 83.5324Z" fill="#EB444A"/>
<path d="M165.965 319.411C165.932 319.75 165.857 320.025 165.741 320.236C165.641 320.459 165.464 320.762 165.209 321.145L155.98 335.031C155.215 336.182 154.449 336.647 153.682 336.426C153.299 336.315 152.865 336.099 152.382 335.778C151.898 335.456 151.542 335.159 151.314 334.888C151.086 334.616 150.935 334.371 150.863 334.155C150.79 333.938 150.784 333.694 150.845 333.422C150.95 333.083 151.197 332.621 151.585 332.038L157.156 323.656C156.395 323.896 155.237 324.317 153.683 324.919C152.139 325.504 151.165 325.867 150.76 326.006C150.354 326.146 150.071 326.246 149.91 326.307C149.76 326.352 149.452 326.364 148.986 326.342C148.547 326.315 148.135 326.174 147.752 325.919C147.385 325.675 147.098 325.364 146.892 324.987C146.714 324.604 146.614 324.285 146.591 324.029L146.574 323.621C146.517 322.982 146.446 321.66 146.36 319.655C146.285 317.633 146.239 316.545 146.222 316.389L140.618 324.821C140.363 325.204 140.152 325.485 139.986 325.663C139.847 325.835 139.634 325.994 139.345 326.139C138.796 326.423 137.995 326.216 136.945 325.517C135.927 324.841 135.443 324.195 135.492 323.578C135.514 323.256 135.575 322.984 135.674 322.761C135.791 322.55 135.982 322.244 136.248 321.844L145.477 307.958C145.732 307.574 145.929 307.296 146.067 307.124C146.234 306.946 146.467 306.776 146.767 306.615C147.305 306.347 148.1 306.563 149.15 307.261C149.601 307.561 149.946 307.874 150.185 308.201C150.452 308.523 150.597 308.776 150.619 308.959L150.67 309.209L151.394 320.44C156.724 318.571 160.263 317.353 162.012 316.784C162.595 316.522 163.412 316.74 164.462 317.438C165.53 318.148 166.031 318.806 165.965 319.411Z" fill="#EB444A"/>
<path d="M176.503 336.526C176.002 337.637 175.346 338.339 174.534 338.632C173.749 338.914 173.02 338.903 172.345 338.599L165.866 335.68C165.636 336.19 165.744 336.754 166.19 337.371C166.635 337.989 167.158 338.433 167.76 338.704C168.817 339.18 169.695 339.444 170.395 339.497L170.745 339.523C171.273 339.519 171.683 339.583 171.974 339.715C172.558 339.977 172.874 340.613 172.924 341.622C172.939 342.221 172.869 342.694 172.713 343.04C171.982 344.662 169.675 344.598 165.793 342.849C164.445 342.242 163.344 341.472 162.493 340.54C161.667 339.598 161.135 338.613 160.897 337.585C160.414 335.591 160.583 333.683 161.404 331.861C162.439 329.564 164.002 328.065 166.094 327.364C168.213 326.652 170.384 326.797 172.607 327.799C175.141 328.94 176.597 330.671 176.977 332.99C177.17 334.217 177.012 335.396 176.503 336.526ZM170.377 334.72C171.07 335.032 171.547 334.896 171.81 334.313C171.999 333.894 171.987 333.483 171.774 333.08C171.579 332.685 171.181 332.352 170.579 332.081C169.996 331.818 169.302 331.802 168.497 332.031C167.7 332.242 167.179 332.621 166.933 333.168L170.377 334.72Z" fill="#EB444A"/>
<path d="M183.198 348.327C181.236 347.821 179.795 346.662 178.874 344.851C177.977 343.024 177.804 341.043 178.355 338.906L179.669 333.806C179.789 333.34 179.887 333.002 179.961 332.794C180.055 332.59 180.208 332.36 180.419 332.104C180.826 331.649 181.651 331.582 182.894 331.903C184.254 332.253 184.956 332.827 184.998 333.626C185.035 333.967 184.966 334.477 184.79 335.157L183.476 340.257C183.271 341.053 183.334 341.732 183.666 342.294C184.017 342.861 184.571 343.242 185.329 343.438C186.106 343.638 186.787 343.565 187.374 343.219C187.98 342.878 188.38 342.329 188.576 341.571L189.905 336.413C190.02 335.966 190.115 335.638 190.189 335.43C190.288 335.207 190.453 334.969 190.684 334.718C191.066 334.278 191.879 334.218 193.123 334.539C194.347 334.854 195.027 335.309 195.164 335.904C195.225 336.23 195.235 336.513 195.194 336.751C195.178 336.974 195.112 337.31 194.997 337.757L192.338 348.072C192.228 348.5 192.124 348.825 192.025 349.048C191.95 349.257 191.8 349.477 191.575 349.709C191.153 350.139 190.34 350.199 189.136 349.888C187.95 349.583 187.282 349.162 187.13 348.626C187.021 348.245 187.027 347.822 187.147 347.356C187.034 347.472 186.809 347.621 186.472 347.803C186.135 347.986 185.818 348.132 185.52 348.242C184.749 348.499 183.975 348.527 183.198 348.327Z" fill="#EB444A"/>
<path d="M196.415 349.867C196.055 349.598 195.895 349.203 195.936 348.684C195.977 348.165 196.419 347.406 197.261 346.408C197.508 346.086 197.87 345.944 198.35 345.982C198.849 346.021 199.498 346.324 200.297 346.889C201.098 347.435 201.837 347.734 202.516 347.788C203.734 347.884 204.362 347.693 204.4 347.214C204.43 346.834 203.783 346.502 202.46 346.216C201.216 345.937 200.005 345.369 198.827 344.513C198.277 344.108 197.842 343.511 197.522 342.722C197.205 341.914 197.088 340.98 197.171 339.922C197.421 336.767 199.712 335.361 204.044 335.704C205.462 335.816 206.892 336.271 208.336 337.068C209.01 337.442 209.327 337.869 209.289 338.349C209.252 338.828 208.985 339.399 208.491 340.063C207.996 340.727 207.52 341.041 207.06 341.005C206.821 340.986 206.383 340.801 205.748 340.449C205.133 340.099 204.446 339.894 203.687 339.834C202.509 339.741 201.903 339.914 201.868 340.354C201.821 340.953 202.469 341.396 203.812 341.683C205.119 341.926 206.367 342.407 207.556 343.124C208.113 343.449 208.553 343.976 208.877 344.705C209.223 345.415 209.355 346.289 209.273 347.328C209.191 348.366 208.921 349.238 208.463 349.946C208.027 350.634 207.445 351.131 206.718 351.435C205.391 351.953 203.76 352.135 201.823 351.982C199.906 351.831 198.104 351.126 196.415 349.867Z" fill="#EB444A"/>
<path d="M234.381 331.332C235.098 332.271 235.584 333.379 235.838 334.656C236.092 335.933 236.067 337.143 235.763 338.285C235.455 339.408 234.959 340.354 234.275 341.123C232.894 342.705 231.33 343.669 229.581 344.016L225.898 344.748L226.56 348.078C226.65 348.53 226.698 348.877 226.706 349.121C226.729 349.341 226.691 349.614 226.593 349.94C226.423 350.525 225.71 350.942 224.453 351.192C223.078 351.465 222.2 351.262 221.82 350.582C221.636 350.272 221.475 349.773 221.339 349.085L218.089 332.732C217.999 332.28 217.942 331.944 217.919 331.724C217.911 331.48 217.957 331.196 218.056 330.87C218.225 330.285 218.939 329.867 220.196 329.618L226.501 328.364C228.23 328.021 230.034 328.316 231.915 329.249C232.841 329.698 233.663 330.392 234.381 331.332ZM228.574 338.795C229.164 338.678 229.7 338.347 230.184 337.801C230.668 337.256 230.824 336.551 230.652 335.687C230.48 334.823 230.067 334.231 229.411 333.912C228.752 333.573 228.117 333.465 227.508 333.586L223.825 334.318L224.862 339.533L228.574 338.795Z" fill="#EB444A"/>
<path d="M252.243 332.562C252.695 333.698 252.744 334.66 252.388 335.449C252.045 336.211 251.528 336.729 250.839 337.004L244.217 339.638C244.425 340.159 244.906 340.475 245.662 340.584C246.417 340.694 247.102 340.626 247.717 340.381C248.797 339.952 249.6 339.503 250.126 339.035L250.389 338.801C250.754 338.418 251.086 338.167 251.384 338.049C251.98 337.812 252.659 338.027 253.421 338.695C253.863 339.101 254.155 339.481 254.296 339.835C254.955 341.493 253.301 343.111 249.334 344.689C247.956 345.238 246.634 345.494 245.368 345.458C244.114 345.396 243.033 345.093 242.126 344.548C240.352 343.506 239.095 342.054 238.354 340.191C237.42 337.844 237.429 335.672 238.382 333.675C239.347 331.652 240.965 330.188 243.237 329.284C245.826 328.254 248.089 328.411 250.026 329.755C251.045 330.471 251.784 331.407 252.243 332.562ZM246.67 335.717C247.378 335.436 247.613 334.997 247.376 334.401C247.206 333.972 246.901 333.695 246.462 333.567C246.042 333.432 245.524 333.487 244.91 333.732C244.314 333.969 243.818 334.457 243.422 335.197C243.018 335.919 242.928 336.559 243.15 337.118L246.67 335.717Z" fill="#EB444A"/>
<path d="M261.703 326.496L259.94 327.344L261.963 330.963C262.227 331.435 262.488 331.736 262.745 331.868C263.019 331.99 263.358 331.938 263.76 331.713C264.179 331.479 264.504 331.32 264.733 331.238C264.97 331.129 265.25 331.075 265.573 331.078C266.102 331.081 266.631 331.554 267.158 332.498C267.774 333.599 267.906 334.409 267.553 334.927C267.359 335.196 267.167 335.407 266.977 335.559C266.794 335.684 266.511 335.854 266.126 336.069C264.308 337.086 262.698 337.447 261.294 337.153C259.891 336.859 258.642 335.734 257.547 333.776L255.377 329.895C255.075 330.133 254.731 330.36 254.346 330.575C253.962 330.79 253.555 330.822 253.127 330.671C252.716 330.511 252.31 330.073 251.91 329.356C251.509 328.639 251.264 328.099 251.176 327.735C251.077 327.354 251.068 327.05 251.147 326.822C251.3 326.439 251.586 326.129 252.005 325.895L252.929 325.516L251.419 322.815C251.194 322.413 251.037 322.111 250.947 321.909C250.874 321.697 250.844 321.439 250.857 321.133C250.84 320.569 251.391 319.974 252.51 319.349C253.698 318.684 254.587 318.612 255.176 319.131C255.42 319.362 255.713 319.783 256.055 320.395L257.492 322.965C258.222 322.465 258.779 322.108 259.164 321.893C259.566 321.668 259.873 321.519 260.085 321.447C260.304 321.347 260.584 321.293 260.924 321.287C261.506 321.26 262.11 321.806 262.735 322.925C263.351 324.026 263.491 324.831 263.156 325.339C262.962 325.608 262.77 325.819 262.58 325.971C262.397 326.096 262.105 326.271 261.703 326.496Z" fill="#EB444A"/>
<path d="M270.91 331.562C270.46 331.586 270.085 331.385 269.784 330.96C269.483 330.535 269.337 329.669 269.345 328.363C269.328 327.958 269.515 327.617 269.908 327.339C270.316 327.05 271.008 326.866 271.984 326.789C272.949 326.695 273.709 326.451 274.264 326.058C275.261 325.352 275.621 324.803 275.343 324.411C275.123 324.1 274.414 324.259 273.214 324.887C272.081 325.469 270.787 325.808 269.334 325.905C268.651 325.946 267.935 325.766 267.185 325.365C266.423 324.947 265.735 324.305 265.122 323.439C263.293 320.857 264.152 318.31 267.699 315.798C268.86 314.977 270.25 314.41 271.869 314.097C272.627 313.954 273.144 314.078 273.422 314.47C273.7 314.863 273.861 315.472 273.907 316.299C273.952 317.126 273.787 317.672 273.411 317.938C273.215 318.077 272.76 318.215 272.047 318.352C271.351 318.477 270.692 318.759 270.071 319.199C269.106 319.882 268.751 320.403 269.006 320.763C269.353 321.253 270.135 321.178 271.35 320.538C272.51 319.889 273.776 319.459 275.148 319.248C275.784 319.141 276.46 319.264 277.176 319.616C277.896 319.94 278.557 320.528 279.159 321.378C279.761 322.228 280.112 323.071 280.214 323.907C280.32 324.715 280.191 325.469 279.827 326.168C279.14 327.416 278.003 328.601 276.418 329.723C274.849 330.834 273.013 331.447 270.91 331.562Z" fill="#EB444A"/>
<mask id="mask0_86_968" style="mask-type:luminance" maskUnits="userSpaceOnUse" x="98" y="89" width="223" height="218">
<path d="M320.3 89.4778H98.1418V306.262H320.3V89.4778Z" fill="white"/>
</mask>
<g mask="url(#mask0_86_968)">
<mask id="mask1_86_968" style="mask-type:luminance" maskUnits="userSpaceOnUse" x="72" y="71" width="258" height="251">
<path d="M297.68 321.016L329.808 216.293L323.872 120.265L303.104 72.8823L282.581 71.6472L262.186 104.448H151.966L131.755 76.3482L72.0499 163.013L118.715 321.016" fill="white"/>
</mask>
<g mask="url(#mask1_86_968)">
<path d="M208.701 69.0544H208.695C151.694 69.0544 105.485 115.263 105.485 172.264V236.593C105.485 293.594 151.694 339.803 208.695 339.803H208.701C265.702 339.803 311.911 293.594 311.911 236.593V172.264C311.911 115.263 265.702 69.0544 208.701 69.0544Z" stroke="#EB444A" stroke-width="5.18498" stroke-miterlimit="10"/>
</g>
</g>
</svg>
