<svg width="115" height="110" viewBox="0 0 115 110" fill="none" xmlns="http://www.w3.org/2000/svg">
<path d="M56.094 25.032C61.9218 25.032 67.5109 27.3471 71.6318 31.4679C75.7526 35.5888 78.0677 41.1779 78.0677 47.0056V63.2303C78.0677 64.6874 77.7807 66.1303 77.2231 67.4765C76.6654 68.8227 75.8481 70.0459 74.8178 71.0763C73.7874 72.1067 72.5642 72.924 71.218 73.4816C69.8717 74.0392 68.4289 74.3262 66.9717 74.3262H45.2103C42.2675 74.3262 39.4452 73.1572 37.3643 71.0763C35.2834 68.9954 34.1144 66.1731 34.1144 63.2303V47.0116C34.1144 41.1838 36.4295 35.5948 40.5503 31.4739C44.6712 27.353 50.2603 25.038 56.088 25.038L56.094 25.032Z" fill="#EEEEEB"/>
<path fill-rule="evenodd" clip-rule="evenodd" d="M64.0674 29.6644C64.4322 30.7945 63.8806 32.7019 63.4022 32.9934C62.8133 33.3521 61.018 32.8753 60.1914 32.0232C59.3214 31.1264 59.5127 29.5239 61.5681 29.9305C62.1451 27.9648 63.7072 28.5508 64.0674 29.6644Z" fill="#EB444A"/>
<path fill-rule="evenodd" clip-rule="evenodd" d="M48.3944 40.4001C48.5065 41.9637 47.1985 44.2343 46.496 44.457C45.6275 44.7321 43.478 43.5602 42.6857 42.2059C41.8531 40.7828 42.602 38.7887 45.1088 39.9547C46.4646 37.6183 48.2823 38.865 48.3944 40.4001Z" fill="#EB444A"/>
<path fill-rule="evenodd" clip-rule="evenodd" d="M67.193 33.2893C66.5801 33.66 65.3828 33.5987 65.1466 33.3581C64.8477 33.0591 64.885 31.941 65.2722 31.3371C65.6788 30.7018 66.6474 30.5897 66.6938 31.8573C67.927 31.9245 67.7984 32.9246 67.193 33.2893Z" fill="#EB444A"/>
<path fill-rule="evenodd" clip-rule="evenodd" d="M52.0417 37.9681C51.6545 38.566 50.5558 39.0473 50.236 38.9367C49.8428 38.7992 49.3749 37.7812 49.4542 37.0682C49.5379 36.3208 50.3585 35.7916 50.9594 36.9053C52.0955 36.4224 52.4229 37.3701 52.0417 37.9681Z" fill="#EB444A"/>
<path d="M47.8412 71.0855C47.8412 71.0855 41.2147 71.4547 40.0099 66.4038C39.0756 62.4874 42.8171 57.4349 44.8187 54.3153C45.1311 53.828 44.4958 53.2584 44.001 53.5679C42.6994 54.3672 41.5173 55.3465 40.4897 56.4768C36.7049 60.6622 34.7542 67.7611 38.1369 71.1453C41.5197 74.5296 48.6603 72.3576 48.6603 72.3576L47.8412 71.0855Z" fill="#9A4912"/>
<path d="M51.3765 73.1872C52.7367 73.5101 59.2377 73.2276 61.142 73.1633C61.3026 73.1588 61.4583 73.1077 61.5903 73.0161C61.7222 72.9245 61.8246 72.7964 61.885 72.6476C62.009 72.3397 62.0344 71.954 61.5696 71.6879C60.6906 71.1797 58.8101 70.7776 58.8101 70.7776C59.3649 70.5533 59.8621 70.2071 60.265 69.7646C60.6678 69.3222 60.966 68.7948 61.1376 68.2215C61.1376 68.2215 61.7504 66.335 60.7653 64.634C59.7803 62.9329 59.2302 62.9269 59.2302 62.9269L51.8727 68.1348V70.676L51.3765 73.1872Z" fill="#AE5214"/>
<path d="M68.0526 36.3238C67.3125 36.3757 66.578 36.1639 65.9793 35.7259C64.8071 34.8989 63.3866 34.4994 61.9553 34.5943C58.704 34.7796 56.6009 37.7438 56.6009 40.3433C56.6009 44.5482 61.5472 47.9803 58.2108 50.2225C49.6425 55.9775 43.6977 62.0315 44.0789 67.2498C44.46 72.4682 47.2359 73.7448 48.7845 74.1125C50.1433 74.4354 56.6457 74.1529 58.5501 74.0886C58.709 74.0831 58.863 74.0318 58.9935 73.9408C59.124 73.8499 59.2254 73.7231 59.2855 73.5759C59.4111 73.2664 59.3079 72.8285 58.6487 72.4518C57.7698 71.945 56.2107 71.7044 56.2107 71.7044C56.2107 71.7044 58.4096 70.7133 58.5501 69.1468C58.6682 67.8149 58.5501 67.6848 58.5501 67.6848L63.0151 65.1063C63.0151 65.1063 63.7386 71.3396 63.7386 72.2156C63.7386 73.0915 63.9045 74.4668 64.5428 74.6282C65.181 74.7896 66.9464 75.0258 67.3485 74.3293C67.7506 73.6327 66.6878 73.0288 66.3021 72.8031C65.9165 72.5773 66.5533 69.4756 66.5533 69.4756L66.2199 72.9839C66.2199 72.9839 65.9539 74.3293 67.0361 74.3158C68.0436 74.3038 68.9509 74.3831 69.2783 73.8135C69.6057 73.244 68.1243 72.4682 68.1243 72.4682C68.1243 72.4682 69.2514 62.8177 69.4517 60.5322C69.8747 55.7324 69.9585 54.6262 68.1497 48.8278C67.2439 45.9249 68.7716 42.9293 69.9016 42.2776C71.0317 41.6259 72.3606 40.0638 72.3606 38.708C72.3606 37.3522 71.9959 36.1863 70.6804 36.1863C69.9689 36.1907 68.8912 36.258 68.0526 36.3238Z" fill="#BA5F17"/>
<path d="M61.1451 39.9188C61.1451 39.9188 63.4411 48.5887 62.2348 50.6814C61.0285 52.7742 59.293 52.9236 57.583 51.9386C55.8729 50.9535 56.1315 47.1776 56.5037 44.2463C56.8759 41.315 57.4649 39.5855 57.8969 39.1535C59.1361 37.9113 60.7878 38.0757 61.1451 39.9188Z" fill="#9A4912"/>
<path d="M70.4473 36.1937C70.4473 36.1937 71.1947 37.8514 72.3591 38.0547C72.3591 38.0547 72.6162 37.0218 72.1035 36.5076C71.5908 35.9934 70.4473 36.1937 70.4473 36.1937Z" fill="#222C38"/>
<path d="M58.7293 67.9778C58.6921 67.978 58.6562 67.9643 58.6286 67.9394C58.6009 67.9146 58.5836 67.8803 58.5798 67.8433C58.39 65.5921 56.2883 64.329 56.2674 64.317C56.2414 64.294 56.2242 64.2626 56.2188 64.2283C56.2135 64.194 56.2202 64.1589 56.2379 64.129C56.2556 64.0991 56.2831 64.0763 56.3158 64.0645C56.3484 64.0528 56.3842 64.0527 56.4169 64.0644C56.508 64.1197 58.671 65.4187 58.8728 67.8194C58.875 67.8576 58.8624 67.8952 58.8376 67.9244C58.8129 67.9536 58.7778 67.9722 58.7398 67.9763L58.7293 67.9778Z" fill="#AE5214"/>
<path d="M68.1512 59.7563L66.5472 69.4726L66.2049 72.5683C66.1969 72.6354 66.2099 72.7033 66.242 72.7627C66.2741 72.8221 66.3238 72.8701 66.3843 72.9002C66.7924 73.108 67.6459 73.6356 67.3485 74.3262C67.5861 74.3262 67.7969 74.3053 67.9314 74.3053C68.0346 73.1857 66.6907 72.5833 66.6907 72.5833L68.1512 59.7563Z" fill="#AE5214"/>
<path d="M63.6789 38.0039C63.9479 37.8679 64.3142 38.0532 64.4965 38.415C64.6789 38.7767 64.6071 39.1818 64.3366 39.3118C64.066 39.4419 63.7013 39.264 63.5189 38.9008C63.3366 38.5375 63.4038 38.1384 63.6789 38.0039Z" fill="#1B2E35"/>
<path d="M71.7628 40.285C71.6069 40.3209 71.4474 40.3395 71.2874 40.3403C70.7871 40.3245 70.2974 40.1925 69.8569 39.9547C69.8332 39.9431 69.8122 39.9269 69.795 39.9069C69.7779 39.8869 69.765 39.8636 69.7572 39.8385C69.7494 39.8133 69.7468 39.7868 69.7496 39.7606C69.7525 39.7345 69.7606 39.7091 69.7736 39.6862C69.7866 39.6633 69.8042 39.6433 69.8252 39.6274C69.8462 39.6116 69.8702 39.6002 69.8958 39.594C69.9214 39.5877 69.948 39.5868 69.974 39.5913C69.9999 39.5957 70.0247 39.6055 70.0467 39.6198C70.0572 39.6198 71.1858 40.2536 72.0184 39.7693C72.0408 39.7559 72.1036 39.7335 72.123 39.7215C72.0258 39.923 71.9049 40.1122 71.7628 40.285Z" fill="#AE5214"/>
<path d="M43.2537 51.7755C43.2537 51.7755 43.3807 49.771 43.8172 48.478C43.9234 48.1281 44.0888 47.799 44.306 47.5049C44.3288 47.4766 44.3574 47.4536 44.39 47.4376C44.4226 47.4215 44.4582 47.4128 44.4945 47.4119C44.5308 47.4111 44.5668 47.4182 44.6001 47.4327C44.6334 47.4472 44.6631 47.4687 44.6872 47.4959L47.1775 50.2747C47.1775 50.2747 43.5466 51.2718 43.2537 51.7755Z" fill="#FFFDFF"/>
<path d="M44.4974 48.1447C44.8218 48.78 45.3255 49.8323 45.7874 50.1163C45.7874 50.1163 44.7949 50.3974 43.4525 51.5215C43.4525 51.5215 43.8098 49.0924 44.1267 48.3345C44.2687 47.9907 44.4047 47.9668 44.4974 48.1447Z" fill="#FFC7BD"/>
<path d="M41.7739 55.5499C42.0415 59.0478 45.212 59.8475 45.212 59.8475C45.212 59.8475 44.8906 63.4844 45.484 65.2632C46.0775 67.042 47.3779 70.9704 46.7621 72.0362C46.1462 73.102 45.5498 72.7163 45.4736 73.4906C45.3973 74.2649 45.8054 74.7029 48.4049 74.7029C51.0043 74.7029 54.698 74.1558 54.698 74.1558C56.2242 75.0377 60.592 74.673 61.607 74.087C62.622 73.5011 63.8642 69.8463 61.607 66.7625C59.3499 63.6787 57.3124 63.3917 55.861 61.9387C54.4095 60.4858 53.7563 58.0926 54.0821 57.5276C54.408 56.9625 54.8744 54.5484 54.0478 53.1164C53.2211 51.6844 50.5589 49.5752 48.0969 49.5752C45.635 49.5752 41.469 51.5708 41.7739 55.5499Z" fill="#FFFDFF"/>
<path d="M53.577 52.8159C53.577 52.8159 53.716 50.9519 53.4678 49.6111C53.4129 49.2495 53.2961 48.9001 53.1225 48.5782C53.1038 48.5471 53.0786 48.5204 53.0486 48.5C53.0185 48.4796 52.9845 48.4659 52.9487 48.46C52.9129 48.454 52.8762 48.4559 52.8412 48.4654C52.8062 48.475 52.7736 48.492 52.7458 48.5154L49.677 50.7023C49.677 50.7023 53.3647 52.2718 53.577 52.8159Z" fill="#FFFDFF"/>
<path d="M52.538 49.1791C51.7697 49.8413 51.239 50.2838 50.8175 50.5768C51.6205 51.0332 52.3407 51.622 52.9476 52.3182C52.9476 52.3182 53.1389 50.1463 52.9551 49.4019C52.8654 49.0297 52.6905 49.0536 52.538 49.1791Z" fill="#FFC7BD"/>
<path d="M46.8443 55.1225C46.8443 55.3497 46.5976 55.5336 46.2927 55.5336C45.9877 55.5336 45.7411 55.3497 45.7411 55.1225C45.7411 54.8953 45.9877 54.7114 46.2927 54.7114C46.5976 54.7114 46.8443 54.8953 46.8443 55.1225Z" fill="#FFC7BD"/>
<path d="M49.0625 54.1613C49.2897 54.1613 49.4736 54.4079 49.4736 54.7113C49.4736 55.0148 49.2897 55.2629 49.0625 55.2629C48.8353 55.2629 48.653 55.0163 48.653 54.7113C48.653 54.4064 48.8368 54.1613 49.0625 54.1613Z" fill="#1B2E35"/>
<path d="M44.3837 54.9297C44.6108 54.9297 44.7948 54.6828 44.7948 54.3781C44.7948 54.0735 44.6108 53.8265 44.3837 53.8265C44.1567 53.8265 43.9727 54.0735 43.9727 54.3781C43.9727 54.6828 44.1567 54.9297 44.3837 54.9297Z" fill="#1B2E35"/>
<path d="M49.0626 60.1675C49.0626 60.1675 48.0282 61.8237 48.0282 64.7505C48.1776 66.912 48.4138 68.063 47.5095 69.4667C47.0256 68.3431 46.4837 67.2455 45.8861 66.1781C45.3076 65.1616 44.7934 62.9119 45.2164 59.8461C45.2164 59.8476 47.061 60.4903 49.0626 60.1675Z" fill="#FBE4DC"/>
<path d="M54.5141 74.1873C54.4194 74.102 54.3452 73.9964 54.297 73.8783C54.2489 73.7603 54.228 73.6329 54.236 73.5057C54.236 72.6836 55.4917 72.5969 55.9611 72.561C55.985 72.4115 56.0029 71.9451 56.0597 71.1738C56.2331 68.809 57.8699 67.9914 57.9417 67.954C58.0418 67.9017 58.145 67.8867 58.1973 67.9884C58.2084 68.0108 58.2147 68.0354 58.2156 68.0604C58.2165 68.0854 58.2121 68.1104 58.2026 68.1336C58.1931 68.1568 58.1788 68.1777 58.1606 68.1949C58.1425 68.2121 58.1208 68.2253 58.0971 68.2335C58.0344 68.2664 56.538 69.0751 56.3826 71.2037C56.275 72.6836 56.2167 72.7314 56.1449 72.7927L56.0059 72.842C55.5156 72.8614 54.5918 73.0408 54.5305 73.4728C54.4692 73.9048 54.6277 74.0827 54.7024 74.1559" fill="#FBE4DC"/>
<path d="M46.8443 74.6208C46.663 74.4696 46.5442 74.2566 46.5109 74.0229C46.5086 73.9801 46.5086 73.9371 46.5109 73.8943C46.5109 73.2635 46.6903 72.8689 47.635 72.5923C48.2733 72.4055 48.7995 70.4533 48.7995 67.51C48.7995 66.2185 48.8697 63.1646 48.8727 63.1332C48.8802 63.0241 48.9191 62.9493 48.9893 62.9493C49.0596 62.9493 49.0775 63.051 49.07 63.1601C49.07 63.1915 49.0506 66.3156 49.0506 67.5937C49.0506 70.9107 48.6111 72.6148 47.7456 72.8689C46.9459 73.1021 46.7964 73.4668 46.7964 73.8943C46.7949 73.9207 46.7949 73.9472 46.7964 73.9735C46.8144 74.1126 46.9579 74.5236 47.1627 74.6686" fill="#FBE4DC"/>
<path d="M48.8549 74.703C49.6381 74.5161 49.8041 73.5535 49.967 73.1992C50.0426 72.9963 50.149 72.8062 50.2824 72.6356C50.4991 72.3531 53.2302 66.9913 53.3976 65.0854C53.408 64.9777 53.4245 64.8686 53.5306 64.8776C53.6367 64.8866 53.6173 64.9837 53.6083 65.0928C53.432 67.1019 50.8071 72.67 50.5619 72.9152C50.4699 73.057 50.3913 73.2071 50.3272 73.3636C50.1494 73.7448 49.9296 74.2216 49.6381 74.5131C49.5679 74.5873 49.4828 74.6458 49.3885 74.685" fill="#FBE4DC"/>
<path d="M63.465 73.9002C62.6623 73.9002 61.8745 73.4787 61.755 73.4114C61.6172 73.3295 61.5168 73.1972 61.475 73.0425C61.4333 72.8878 61.4534 72.7229 61.5312 72.5829C61.6091 72.4428 61.7384 72.3386 61.8918 72.2923C62.0452 72.2461 62.2106 72.2614 62.3529 72.3351C62.7595 72.5608 63.483 72.7836 63.7266 72.6102C63.8686 72.5085 63.9747 72.081 63.8088 71.22C61.8656 61.1046 62.2169 55.7801 64.897 54.9445C66.0122 54.5978 66.8866 54.7158 67.498 55.2958C68.8179 56.55 68.1213 59.4619 68.0376 59.7892C67.998 59.9478 67.897 60.0841 67.7568 60.1682C67.6166 60.2523 67.4488 60.2773 67.2902 60.2377C67.1316 60.198 66.9953 60.097 66.9112 59.9568C66.8271 59.8167 66.8021 59.6488 66.8418 59.4903C67.0496 58.6726 67.2738 56.7891 66.646 56.1942C66.3829 55.9446 65.918 55.9222 65.2603 56.1269C64.3798 56.402 62.5906 58.4005 65.0151 70.9928C65.2633 72.2798 65.0704 73.1618 64.4441 73.6147C64.1563 73.8112 63.8134 73.9112 63.465 73.9002Z" fill="#FFFDFF"/>
<path d="M63.2094 72.6551C63.2094 72.6551 62.9986 73.5236 62.6444 73.7627L62.0988 73.5819C62.0988 73.5819 62.5158 72.9241 62.6115 72.4578L63.2094 72.6551Z" fill="#FBE4DC"/>
<path d="M47.5095 69.4667C47.5095 69.4667 48.0222 71.3621 47.7845 72.5041C47.7098 72.8599 47.2793 72.9032 47.2793 72.9032C47.2793 72.9032 47.5349 71.8763 47.5349 71.4518C47.5349 71.0273 47.5095 69.4667 47.5095 69.4667Z" fill="#FBE4DC"/>
<path d="M34.0442 60.2989C34.0442 60.2989 32.4373 84.5656 55.3078 84.5656V78.1888C55.3078 78.1888 55.4229 71.7461 50.2942 70.1258C44.1655 68.19 43.0758 62.8849 41.0683 64.3095C39.1773 65.6548 41.6662 71.5294 47.6873 74.1363C47.6873 74.1363 43.6902 73.2394 41.0234 69.8612C39.5421 67.9837 38.9307 64.4799 37.8051 62.4753C36.7886 60.6681 35.2774 60.2675 34.0442 60.2989Z" fill="#EB444A"/>
<path d="M77.9542 60.2989C77.9542 60.2989 79.5581 84.5656 56.6965 84.5656V78.1888C56.6965 78.1888 56.5814 71.7461 61.7101 70.1258C67.8388 68.19 68.9285 62.8849 70.9345 64.3095C72.8255 65.6548 70.3366 71.5294 64.317 74.1363C64.317 74.1363 68.3141 73.2394 70.9794 69.8612C72.4622 67.9837 73.0721 64.4799 74.1977 62.4753C75.2097 60.6681 76.7269 60.2675 77.9542 60.2989Z" fill="#EB444A"/>
<path d="M43.3941 25.2741C43.145 25.2184 42.9707 25.0514 42.8713 24.7732C42.772 24.4951 42.8243 23.9999 43.0282 23.2876C43.0809 23.0637 43.2357 22.9059 43.4924 22.8142C43.7599 22.7186 44.1661 22.7243 44.7109 22.8312C45.252 22.9275 45.7044 22.9106 46.0681 22.7806C46.7207 22.5475 47.0012 22.3025 46.9094 22.0458C46.8368 21.8425 46.4249 21.8208 45.6737 21.9806C44.9653 22.1251 44.2069 22.1126 43.3983 21.943C43.0193 21.8613 42.6555 21.6535 42.307 21.3195C41.9547 20.9749 41.6772 20.5191 41.4746 19.9521C40.8708 18.2618 41.7296 17.0019 44.0511 16.1725C44.8107 15.9011 45.6566 15.804 46.5889 15.8811C47.0245 15.9185 47.2882 16.0656 47.3799 16.3223C47.4717 16.5791 47.4667 16.9367 47.3651 17.3952C47.2636 17.8538 47.0897 18.127 46.8437 18.2149C46.7153 18.2608 46.4459 18.2665 46.0355 18.2322C45.6359 18.194 45.2328 18.2475 44.8262 18.3928C44.195 18.6183 43.9215 18.8487 44.0056 19.0841C44.1202 19.405 44.5585 19.4837 45.3204 19.3201C46.0532 19.1427 46.8105 19.1014 47.5923 19.196C47.9561 19.235 48.3065 19.4054 48.6435 19.7072C48.9874 19.9945 49.2588 20.4163 49.4575 20.9726C49.6563 21.5289 49.7194 22.0432 49.6468 22.5155C49.5811 22.9732 49.3955 23.3653 49.0898 23.6916C48.5236 24.2679 47.7217 24.7414 46.6839 25.1121C45.6569 25.4791 44.5603 25.533 43.3941 25.2741Z" fill="#EB444A"/>
<path d="M50.23 18.9643C50.1892 17.601 50.6326 16.462 51.5603 15.5473C52.488 14.6325 53.5653 14.1567 54.7922 14.1199C56.0192 14.0831 57.1174 14.4936 58.0869 15.3515C59.056 16.1979 59.5611 17.3028 59.602 18.6661C59.6303 19.609 59.4112 20.457 58.9449 21.2101C58.4782 21.9518 57.898 22.5093 57.2042 22.8826C56.5214 23.2442 55.8051 23.4363 55.0553 23.4588C54.3055 23.4813 53.573 23.3213 52.8577 22.9789C52.1421 22.6251 51.5294 22.0977 51.0194 21.3967C50.5204 20.6839 50.2573 19.8731 50.23 18.9643ZM53.8284 20.0844C54.2001 20.3461 54.5734 20.4714 54.9483 20.4601C55.3232 20.4489 55.6938 20.2956 56.0602 20.0004C56.4266 19.7051 56.6014 19.2791 56.5847 18.7225C56.568 18.1658 56.3795 17.7564 56.0192 17.4943C55.6588 17.2322 55.2741 17.1073 54.8651 17.1196C54.4562 17.1319 54.0799 17.2853 53.7362 17.5799C53.3925 17.8745 53.2291 18.3001 53.2458 18.8567C53.2621 19.4021 53.4563 19.8113 53.8284 20.0844Z" fill="#EB444A"/>
<path d="M60.2693 22.6715C60.1017 22.478 60.0606 22.2395 60.1463 21.9559C60.232 21.6724 60.5693 21.3042 61.1584 20.8513C61.3343 20.7022 61.5532 20.6671 61.8149 20.7462C62.0876 20.8286 62.4118 21.0753 62.7875 21.4863C63.1664 21.8864 63.5413 22.1425 63.9121 22.2545C64.5774 22.4554 64.9496 22.4251 65.0287 22.1633C65.0913 21.9561 64.772 21.693 64.071 21.3741C63.4135 21.0684 62.8093 20.6062 62.2583 19.9875C62.0014 19.6957 61.8319 19.3112 61.7498 18.8342C61.6711 18.3463 61.7191 17.8133 61.8937 17.2353C62.4142 15.5121 63.8578 15.008 66.2244 15.7229C66.9988 15.9568 67.7389 16.3827 68.4448 17.0006C68.7738 17.2904 68.8988 17.5662 68.8197 17.828C68.7407 18.0897 68.5235 18.3752 68.1683 18.6844C67.813 18.9937 67.51 19.1104 67.2591 19.0346C67.1283 18.9951 66.9076 18.8392 66.5971 18.5668C66.2975 18.2978 65.9405 18.1007 65.5261 17.9755C64.8826 17.7812 64.5247 17.8039 64.4522 18.0439C64.3533 18.371 64.6599 18.6957 65.3719 19.0179C66.0686 19.3117 66.704 19.7298 67.278 20.2721C67.5482 20.5203 67.7292 20.8666 67.8211 21.3109C67.9272 21.7476 67.8946 22.2495 67.7233 22.8167C67.552 23.3838 67.2963 23.8361 66.9563 24.1738C66.6305 24.5038 66.2471 24.7093 65.8061 24.7903C65.0059 24.9176 64.0769 24.8214 63.019 24.5018C61.9721 24.1855 61.0555 23.5754 60.2693 22.6715Z" fill="#EB444A"/>
<path d="M44.4782 85.8967C44.4694 85.9878 44.4493 86.0617 44.4181 86.1184C44.3913 86.1782 44.3437 86.2596 44.2751 86.3626L41.7953 90.0936C41.5898 90.4029 41.384 90.5278 41.178 90.4684C41.0749 90.4387 40.9584 90.3806 40.8285 90.2942C40.6985 90.2079 40.6029 90.1281 40.5416 90.0551C40.4803 89.9821 40.4399 89.9164 40.4204 89.8583C40.4009 89.8001 40.3993 89.7344 40.4156 89.6613C40.4439 89.5702 40.5101 89.4462 40.6144 89.2893L42.1112 87.0373C41.9068 87.1018 41.5958 87.2149 41.1781 87.3767C40.7634 87.5339 40.5016 87.6313 40.3927 87.6688C40.2838 87.7063 40.2077 87.7332 40.1645 87.7497C40.1242 87.7617 40.0414 87.7648 39.916 87.759C39.7981 87.7517 39.6876 87.7138 39.5845 87.6453C39.4859 87.5798 39.4089 87.4963 39.3535 87.3949C39.3056 87.292 39.2787 87.2062 39.2726 87.1375L39.268 87.0278C39.2528 86.8562 39.2336 86.501 39.2105 85.9623C39.1903 85.419 39.178 85.1265 39.1735 85.0847L37.6677 87.3502C37.5992 87.4533 37.5426 87.5287 37.4979 87.5766C37.4606 87.6229 37.4032 87.6655 37.3257 87.7044C37.178 87.7807 36.963 87.7251 36.6807 87.5374C36.4073 87.3557 36.2772 87.182 36.2904 87.0163C36.2962 86.9298 36.3126 86.8566 36.3393 86.7969C36.3706 86.7401 36.422 86.6579 36.4935 86.5504L38.9733 82.8194C39.0418 82.7163 39.0947 82.6416 39.1319 82.5953C39.1766 82.5475 39.2392 82.5018 39.3198 82.4585C39.4645 82.3866 39.678 82.4445 39.9603 82.6322C40.0813 82.7126 40.174 82.7968 40.2383 82.8848C40.31 82.9712 40.3489 83.0391 40.355 83.0883L40.3685 83.1555L40.563 86.1731C41.9951 85.6711 42.9461 85.3436 43.4161 85.1907C43.5727 85.1204 43.7922 85.179 44.0745 85.3667C44.3613 85.5573 44.4959 85.734 44.4782 85.8967Z" fill="#EB444A"/>
<path d="M47.3393 90.5117C47.2047 90.8104 47.0285 90.999 46.8105 91.0775C46.5996 91.1533 46.4035 91.1504 46.2223 91.0688L44.4815 90.2845C44.4197 90.4216 44.4486 90.5731 44.5683 90.7389C44.688 90.9048 44.8286 91.0241 44.9902 91.0969C45.2743 91.2249 45.5103 91.2959 45.6984 91.3099L45.7924 91.3169C45.9342 91.316 46.0443 91.3332 46.1226 91.3685C46.2794 91.4391 46.3644 91.61 46.3777 91.8811C46.3818 92.042 46.3629 92.169 46.321 92.262C46.1246 92.6978 45.5049 92.6808 44.4618 92.2108C44.0995 92.0476 43.8038 91.8407 43.575 91.5903C43.3532 91.3373 43.2103 91.0726 43.1463 90.7963C43.0165 90.2606 43.0619 89.748 43.2825 89.2583C43.5605 88.6412 43.9806 88.2385 44.5427 88.0499C45.112 87.8586 45.6953 87.8976 46.2927 88.1668C46.9734 88.4735 47.3648 88.9385 47.4669 89.5618C47.5186 89.8914 47.4761 90.2081 47.3393 90.5117ZM45.6935 90.0264C45.8795 90.1102 46.0079 90.0738 46.0785 89.9171C46.1292 89.8045 46.126 89.694 46.0687 89.5857C46.0164 89.4797 45.9094 89.3902 45.7478 89.3174C45.5911 89.2468 45.4046 89.2423 45.1883 89.304C44.9743 89.3607 44.8341 89.4625 44.7679 89.6094L45.6935 90.0264Z" fill="#EB444A"/>
<path d="M49.172 93.6944C48.6448 93.5585 48.2574 93.2471 48.0099 92.7603C47.769 92.2696 47.7225 91.7371 47.8705 91.1629L48.2237 89.7927C48.256 89.6675 48.2821 89.5768 48.3021 89.5207C48.3274 89.466 48.3683 89.4042 48.4251 89.3353C48.5345 89.2132 48.7562 89.1952 49.0903 89.2813C49.4557 89.3755 49.6441 89.5298 49.6556 89.7443C49.6654 89.8359 49.6468 89.973 49.5997 90.1557L49.2465 91.5259C49.1914 91.74 49.2084 91.9225 49.2975 92.0735C49.3918 92.2258 49.5408 92.3282 49.7443 92.3807C49.9531 92.4345 50.1363 92.4149 50.2939 92.3219C50.4567 92.2303 50.5643 92.0827 50.6168 91.8791L50.9739 90.4932C51.0049 90.3732 51.0304 90.2851 51.0504 90.229C51.077 90.1691 51.1212 90.1053 51.1832 90.0378C51.286 89.9196 51.5045 89.9035 51.8385 89.9896C52.1674 90.0744 52.3502 90.1966 52.3869 90.3564C52.4033 90.4441 52.406 90.52 52.3951 90.5839C52.3907 90.644 52.3731 90.7341 52.3421 90.8542L51.6278 93.6259C51.5982 93.7408 51.5701 93.8282 51.5435 93.8881C51.5235 93.9442 51.4832 94.0034 51.4226 94.0657C51.3093 94.1812 51.0909 94.1973 50.7672 94.1139C50.4488 94.0318 50.2692 93.9187 50.2284 93.7746C50.1991 93.6724 50.2006 93.5587 50.2329 93.4334C50.2026 93.4646 50.1421 93.5047 50.0516 93.5537C49.961 93.6027 49.8757 93.642 49.7958 93.6715C49.5887 93.7406 49.3808 93.7482 49.172 93.6944Z" fill="#EB444A"/>
<path d="M52.7586 94.1142C52.6618 94.0417 52.6189 93.9358 52.6299 93.7963C52.6409 93.6568 52.7596 93.453 52.9859 93.1848C53.0522 93.0982 53.1497 93.0601 53.2784 93.0702C53.4125 93.0808 53.5869 93.1621 53.8016 93.314C54.0168 93.4606 54.2155 93.5411 54.3979 93.5555C54.7252 93.5814 54.8939 93.5299 54.9041 93.4012C54.9121 93.2993 54.7383 93.2099 54.3827 93.1332C54.0486 93.0582 53.7233 92.9057 53.4068 92.6755C53.2588 92.5667 53.142 92.4063 53.0561 92.1944C52.9708 91.9771 52.9393 91.7263 52.9618 91.442C53.0288 90.5944 53.6443 90.2166 54.8085 90.3086C55.1893 90.3387 55.5737 90.4609 55.9617 90.6751C56.1426 90.7758 56.228 90.8905 56.2179 91.0192C56.2077 91.148 56.1362 91.3016 56.0033 91.48C55.8704 91.6584 55.7423 91.7428 55.6189 91.733C55.5546 91.7279 55.437 91.6781 55.2664 91.5837C55.1011 91.4896 54.9165 91.4346 54.7126 91.4184C54.3961 91.3934 54.2332 91.4399 54.2239 91.5579C54.2111 91.7189 54.3853 91.8379 54.7462 91.915C55.0973 91.9806 55.4326 92.1096 55.7521 92.3022C55.9017 92.3896 56.0201 92.5312 56.1071 92.7271C56.2 92.9179 56.2354 93.1529 56.2134 93.4318C56.1913 93.7108 56.1188 93.9452 55.9958 94.1353C55.8786 94.3203 55.7223 94.4537 55.5269 94.5354C55.1705 94.6746 54.732 94.7236 54.2117 94.6825C53.6967 94.6418 53.2123 94.4523 52.7586 94.1142Z" fill="#EB444A"/>
<path d="M63.0166 89.1305C63.2094 89.383 63.3399 89.6807 63.4081 90.0238C63.4763 90.3669 63.4696 90.6919 63.3879 90.9989C63.3052 91.3007 63.172 91.5548 62.9881 91.7615C62.6171 92.1863 62.1968 92.4454 61.727 92.5388L60.7374 92.7355L60.9152 93.6301C60.9393 93.7515 60.9524 93.8449 60.9544 93.9103C60.9607 93.9695 60.9506 94.0428 60.9241 94.1303C60.8785 94.2875 60.6868 94.3997 60.349 94.4668C59.9795 94.5403 59.7437 94.4856 59.6416 94.3029C59.5921 94.2195 59.549 94.0854 59.5123 93.9007L58.639 89.5067C58.6149 89.3853 58.5997 89.295 58.5935 89.2359C58.5914 89.1705 58.6037 89.094 58.6302 89.0064C58.6757 88.8492 58.8674 88.737 59.2052 88.6699L60.8995 88.3332C61.3639 88.2409 61.8488 88.3201 62.354 88.5709C62.6029 88.6915 62.8238 88.878 63.0166 89.1305ZM61.4565 91.1359C61.6148 91.1044 61.759 91.0154 61.8889 90.8689C62.0189 90.7223 62.0609 90.533 62.0147 90.3007C61.9685 90.0685 61.8574 89.9095 61.6813 89.8238C61.5041 89.7328 61.3337 89.7036 61.17 89.7361L60.1804 89.9328L60.4589 91.3341L61.4565 91.1359Z" fill="#EB444A"/>
<path d="M67.8524 89.4502C67.9738 89.7555 67.9869 90.0141 67.8914 90.2259C67.799 90.4308 67.6603 90.5701 67.4751 90.6437L65.696 91.3516C65.7517 91.4917 65.8811 91.5765 66.0841 91.6058C66.287 91.6352 66.4711 91.6171 66.6363 91.5513C66.9265 91.4359 67.1423 91.3152 67.2835 91.1895L67.3542 91.1266C67.4524 91.0238 67.5415 90.9564 67.6216 90.9246C67.7817 90.8608 67.9642 90.9187 68.1689 91.0981C68.2877 91.2073 68.366 91.3095 68.4039 91.4046C68.5811 91.85 68.1367 92.2848 67.0707 92.7089C66.7003 92.8562 66.3452 92.9251 66.0051 92.9154C65.6681 92.8988 65.3777 92.8172 65.1339 92.6708C64.6573 92.3908 64.3195 92.0006 64.1204 91.5002C63.8695 90.8696 63.8721 90.286 64.1281 89.7494C64.3872 89.2057 64.822 88.8125 65.4326 88.5696C66.1282 88.2928 66.7362 88.3349 67.2567 88.696C67.5304 88.8885 67.7289 89.1399 67.8524 89.4502ZM66.355 90.2981C66.5452 90.2224 66.6084 90.1045 66.5447 89.9444C66.4989 89.8293 66.417 89.7546 66.2991 89.7204C66.1861 89.6842 66.0471 89.6989 65.8819 89.7646C65.7218 89.8283 65.5885 89.9596 65.4821 90.1584C65.3737 90.3523 65.3494 90.5243 65.4092 90.6744L66.355 90.2981Z" fill="#EB444A"/>
<path d="M70.4189 87.8087L69.9452 88.0366L70.4888 89.0089C70.5597 89.1357 70.6297 89.2168 70.6988 89.2521C70.7726 89.2848 70.8635 89.271 70.9715 89.2106C71.0843 89.1476 71.1714 89.105 71.2331 89.0829C71.2967 89.0534 71.372 89.0391 71.4587 89.0399C71.6009 89.0406 71.7429 89.1677 71.8847 89.4214C72.0502 89.7173 72.0855 89.9349 71.9908 90.0742C71.9387 90.1465 71.8871 90.203 71.836 90.244C71.7869 90.2775 71.7108 90.3232 71.6074 90.381C71.1189 90.6541 70.6862 90.7512 70.3091 90.6723C69.932 90.5933 69.5964 90.2908 69.3023 89.7647L68.7193 88.722C68.6379 88.786 68.5456 88.8469 68.4422 88.9046C68.3389 88.9624 68.2297 88.9711 68.1146 88.9306C68.0042 88.8875 67.8952 88.7697 67.7875 88.5771C67.6798 88.3846 67.6141 88.2394 67.5903 88.1417C67.5639 88.0394 67.5613 87.9576 67.5826 87.8964C67.6236 87.7933 67.7005 87.7102 67.8132 87.6472L68.0614 87.5454L67.6557 86.8197C67.5953 86.7117 67.553 86.6305 67.5288 86.5762C67.5093 86.5193 67.5013 86.4498 67.5047 86.3677C67.5001 86.2162 67.6481 86.0564 67.9488 85.8883C68.2682 85.7097 68.507 85.6902 68.6652 85.8299C68.7307 85.8919 68.8094 86.0051 68.9013 86.1695L69.2874 86.86C69.4835 86.7256 69.6333 86.6296 69.7366 86.5718C69.8446 86.5114 69.9271 86.4715 69.984 86.452C70.043 86.4251 70.1183 86.4108 70.2097 86.409C70.366 86.4018 70.5281 86.5485 70.6962 86.8491C70.8617 87.145 70.8994 87.3613 70.8093 87.498C70.7572 87.5702 70.7056 87.6268 70.6545 87.6677C70.6055 87.7013 70.527 87.7483 70.4189 87.8087Z" fill="#EB444A"/>
<path d="M72.9113 89.158C72.7905 89.1644 72.6897 89.1105 72.6089 88.9963C72.528 88.8821 72.4886 88.6496 72.4907 88.2986C72.4861 88.1898 72.5366 88.098 72.642 88.0234C72.7518 87.9456 72.9378 87.8964 73.2 87.8756C73.4591 87.8504 73.6633 87.7849 73.8126 87.6792C74.0805 87.4895 74.1771 87.3419 74.1025 87.2365C74.0434 87.1531 73.8528 87.1958 73.5305 87.3646C73.2258 87.521 72.8783 87.6121 72.4878 87.638C72.3045 87.6491 72.112 87.6008 71.9104 87.493C71.7057 87.3808 71.5209 87.2083 71.3561 86.9755C70.8648 86.2816 71.0956 85.5973 72.0487 84.9225C72.3605 84.7017 72.734 84.5494 73.1691 84.4655C73.3725 84.4269 73.5116 84.4603 73.5862 84.5657C73.6609 84.6711 73.7043 84.8349 73.7165 85.057C73.7287 85.2791 73.6843 85.426 73.5833 85.4975C73.5306 85.5348 73.4085 85.5718 73.2169 85.6086C73.0297 85.6422 72.8527 85.7181 72.6858 85.8363C72.4266 86.0197 72.3313 86.1598 72.3997 86.2564C72.493 86.3882 72.703 86.3681 73.0296 86.1961C73.3412 86.0216 73.6814 85.9061 74.0501 85.8494C74.221 85.8207 74.4026 85.8537 74.5949 85.9483C74.7884 86.0355 74.9661 86.1932 75.1278 86.4216C75.2895 86.65 75.3839 86.8765 75.4111 87.1012C75.4396 87.3184 75.405 87.5209 75.3073 87.7088C75.1226 88.044 74.8172 88.3624 74.3912 88.664C73.9696 88.9626 73.4763 89.1272 72.9113 89.158Z" fill="#EB444A"/>
<mask id="mask0_86_912" style="mask-type:luminance" maskUnits="userSpaceOnUse" x="26" y="23" width="61" height="60">
<path d="M86.062 23.9424H26.3699V82.1905H86.062V23.9424Z" fill="white"/>
</mask>
<g mask="url(#mask0_86_912)">
<mask id="mask1_86_912" style="mask-type:luminance" maskUnits="userSpaceOnUse" x="19" y="19" width="70" height="68">
<path d="M79.9841 86.1547L88.6167 58.0165L87.0217 32.2146L81.4416 19.4833L75.9272 19.1515L70.4473 27.9649H40.8322L35.4015 20.4146L19.3593 43.7007L31.8977 86.1547" fill="white"/>
</mask>
<g mask="url(#mask1_86_912)">
<path d="M56.0762 18.4548H56.0747C40.7589 18.4548 28.343 30.8707 28.343 46.1865V63.471C28.343 78.7867 40.7589 91.2026 56.0747 91.2026H56.0762C71.392 91.2026 83.8078 78.7867 83.8078 63.471V46.1865C83.8078 30.8707 71.392 18.4548 56.0762 18.4548Z" stroke="#EB444A" stroke-width="1.39316" stroke-miterlimit="10"/>
</g>
</g>
</svg>
