<svg width="24" height="24" viewBox="0 0 24 24" fill="none" xmlns="http://www.w3.org/2000/svg">
<path d="M12 24C10.34 24 8.78 23.6848 7.32 23.0544C5.86 22.424 4.59 21.5692 3.51 20.49C2.43 19.4108 1.5752 18.1408 0.945601 16.68C0.316001 15.2192 0.000801518 13.6592 1.51899e-06 12C-0.00079848 10.3408 0.314401 8.7808 0.945601 7.32C1.5768 5.8592 2.4316 4.5892 3.51 3.51C4.5884 2.4308 5.8584 1.576 7.32 0.945599C8.7816 0.3152 10.3416 0 12 0C13.6584 0 15.2184 0.3152 16.68 0.945599C18.1416 1.576 19.4116 2.4308 20.49 3.51C21.5684 4.5892 22.4236 5.8592 23.0556 7.32C23.6876 8.7808 24.0024 10.3408 24 12C23.9976 13.6592 23.6824 15.2192 23.0544 16.68C22.4264 18.1408 21.5716 19.4108 20.49 20.49C19.4084 21.5692 18.1384 22.4244 16.68 23.0556C15.2216 23.6868 13.6616 24.0016 12 24ZM8.52 20.94L9.96 17.64C9.12 17.34 8.3952 16.8752 7.7856 16.2456C7.176 15.616 6.7008 14.8808 6.36 14.04L3.06 15.42C3.52 16.7 4.23 17.82 5.19 18.78C6.15 19.74 7.26 20.46 8.52 20.94ZM6.36 9.95999C6.7 9.11999 7.1752 8.38519 7.7856 7.7556C8.396 7.126 9.1208 6.6608 9.96 6.36L8.58 3.06C7.3 3.54 6.18 4.26 5.22 5.22C4.26 6.18 3.54 7.29999 3.06 8.57999L6.36 9.95999ZM12 15.6C13 15.6 13.85 15.25 14.55 14.55C15.25 13.85 15.6 13 15.6 12C15.6 11 15.25 10.15 14.55 9.44999C13.85 8.74999 13 8.39999 12 8.39999C11 8.39999 10.15 8.74999 9.45 9.44999C8.75 10.15 8.4 11 8.4 12C8.4 13 8.75 13.85 9.45 14.55C10.15 15.25 11 15.6 12 15.6ZM15.48 20.94C16.74 20.46 17.8452 19.7452 18.7956 18.7956C19.746 17.846 20.4608 16.7408 20.94 15.48L17.64 14.04C17.34 14.88 16.88 15.6052 16.26 16.2156C15.64 16.826 14.92 17.3008 14.1 17.64L15.48 20.94ZM17.64 9.89999L20.94 8.51999C20.46 7.26 19.7452 6.1552 18.7956 5.2056C17.846 4.256 16.7408 3.5408 15.48 3.06L14.1 6.42C14.92 6.72 15.63 7.1752 16.23 7.78559C16.83 8.39599 17.3 9.10079 17.64 9.89999Z" fill="#373737"/>
</svg>
