<svg width="24" height="24" viewBox="0 0 24 24" fill="none" xmlns="http://www.w3.org/2000/svg">
<path d="M12 12C10.35 12 8.9375 11.4125 7.7625 10.2375C6.5875 9.0625 6 7.65 6 6C6 4.35 6.5875 2.9375 7.7625 1.7625C8.9375 0.5875 10.35 0 12 0C13.65 0 15.0625 0.5875 16.2375 1.7625C17.4125 2.9375 18 4.35 18 6C18 7.65 17.4125 9.0625 16.2375 10.2375C15.0625 11.4125 13.65 12 12 12ZM0 24V19.8C0 18.95 0.219 18.169 0.657 17.457C1.095 16.745 1.676 16.201 2.4 15.825C3.95 15.05 5.525 14.469 7.125 14.082C8.725 13.695 10.35 13.501 12 13.5C13.65 13.499 15.275 13.693 16.875 14.082C18.475 14.471 20.05 15.052 21.6 15.825C22.325 16.2 22.9065 16.744 23.3445 17.457C23.7825 18.17 24.001 18.951 24 19.8V24H0ZM3 21H21V19.8C21 19.525 20.9315 19.275 20.7945 19.05C20.6575 18.825 20.476 18.65 20.25 18.525C18.9 17.85 17.5375 17.344 16.1625 17.007C14.7875 16.67 13.4 16.501 12 16.5C10.6 16.499 9.2125 16.668 7.8375 17.007C6.4625 17.346 5.1 17.852 3.75 18.525C3.525 18.65 3.3435 18.825 3.2055 19.05C3.0675 19.275 2.999 19.525 3 19.8V21ZM12 9C12.825 9 13.5315 8.7065 14.1195 8.1195C14.7075 7.5325 15.001 6.826 15 6C14.999 5.174 14.7055 4.468 14.1195 3.882C13.5335 3.296 12.827 3.002 12 3C11.173 2.998 10.467 3.292 9.882 3.882C9.297 4.472 9.003 5.178 9 6C8.997 6.822 9.291 7.5285 9.882 8.1195C10.473 8.7105 11.179 9.004 12 9Z" fill="#373737"/>
</svg>
