<svg width="24" height="22" viewBox="0 0 24 22" fill="none" xmlns="http://www.w3.org/2000/svg">
<path d="M18.3433 13.6302C17.9603 12.2418 17.1324 11.0174 15.9865 10.1448C14.8407 9.27227 13.4402 8.79975 12 8.79975C10.5597 8.79975 9.15927 9.27227 8.01343 10.1448C6.86758 11.0174 6.03966 12.2418 5.65666 13.6302L4.74396 16.9387C4.58009 17.5328 4.55564 18.1567 4.67252 18.7617C4.7894 19.3668 5.04445 19.9366 5.41779 20.4269C5.79113 20.9172 6.27266 21.3146 6.82484 21.5882C7.37703 21.8618 7.98494 22.0041 8.60118 22.0041H15.3988C16.015 22.0041 16.6229 21.8618 17.1751 21.5882C17.7273 21.3146 18.2088 20.9172 18.5822 20.4269C18.9555 19.9366 19.2106 19.3668 19.3275 18.7617C19.4443 18.1567 19.4199 17.5328 19.256 16.9387L18.3433 13.6302ZM17.3089 19.4571C17.0859 19.7523 16.7971 19.9916 16.4656 20.1558C16.1341 20.3201 15.7688 20.405 15.3988 20.4036H8.60118C8.23143 20.4036 7.86667 20.3182 7.53536 20.154C7.20404 19.9899 6.91512 19.7514 6.69111 19.4573C6.4671 19.1631 6.31407 18.8212 6.24394 18.4581C6.17381 18.0951 6.18849 17.7208 6.28682 17.3643L7.19952 14.0558C7.48936 13.0051 8.11592 12.0785 8.98306 11.4182C9.85021 10.7579 10.91 10.4003 12 10.4003C13.0899 10.4003 14.1498 10.7579 15.0169 11.4182C15.8841 12.0785 16.5106 13.0051 16.8005 14.0558L17.7132 17.3643C17.8129 17.7206 17.8283 18.0953 17.7581 18.4585C17.688 18.8218 17.5341 19.1638 17.3089 19.4573V19.4571ZM6.50319 9.91564C6.64243 9.04536 6.45777 8.1137 5.98302 7.29163C5.50826 6.46956 4.79363 5.84381 3.97051 5.52926C3.08902 5.1926 2.18992 5.24621 1.43798 5.68016C-0.0568616 6.54324 -0.45024 8.67038 0.561241 10.422C1.03585 11.244 1.75053 11.8699 2.57365 12.1843C2.93828 12.3264 3.32585 12.4005 3.71718 12.403C4.20471 12.4047 4.68399 12.2772 5.10618 12.0334C5.85768 11.5994 6.35384 10.8473 6.50319 9.91564ZM4.92267 9.66266C4.85115 10.1093 4.63207 10.4589 4.30582 10.6473C3.97956 10.8356 3.56723 10.8504 3.14459 10.6891C2.66378 10.5055 2.23854 10.1264 1.94714 9.6217C1.38696 8.65138 1.5201 7.48099 2.23824 7.06626C2.41877 6.96381 2.62322 6.91104 2.83078 6.91331C3.02549 6.91532 3.21818 6.9529 3.39937 7.02419C3.88018 7.20791 4.30542 7.58698 4.59681 8.09169C4.88821 8.59641 5.0039 9.15444 4.92267 9.66266ZM6.67654 6.59991C7.24483 7.0542 7.89379 7.29078 8.55006 7.29073C8.74663 7.29067 8.94263 7.26953 9.1347 7.22766C10.8214 6.86099 11.8441 4.95477 11.4144 2.97837C11.2129 2.05077 10.7228 1.23695 10.0346 0.686719C9.2976 0.0975261 8.42462 -0.125497 7.57644 0.0589635C5.88979 0.425584 4.8671 2.33181 5.29669 4.30821C5.49831 5.23586 5.98837 6.04968 6.67654 6.59991ZM7.91635 1.62298C7.99412 1.60621 8.07347 1.59782 8.15303 1.59797C8.45053 1.59797 8.75653 1.71436 9.03517 1.93713C9.43715 2.25848 9.72669 2.74909 9.85043 3.31863C10.0885 4.41374 9.60505 5.48774 8.79474 5.6639C8.42657 5.74393 8.02924 5.63249 7.67602 5.35005C7.27404 5.02864 6.98449 4.53803 6.86075 3.96854C6.62263 2.87314 7.10609 1.79913 7.91635 1.62298ZM22.562 5.68016C21.8104 5.24621 20.9108 5.1926 20.0295 5.52926C19.2063 5.84371 18.4917 6.46956 18.0171 7.29163C17.5425 8.1137 17.3577 9.04556 17.4969 9.91564C17.646 10.8473 18.1421 11.5994 18.8939 12.0334C19.3161 12.2772 19.7954 12.4047 20.2829 12.403C20.6742 12.4005 21.0618 12.3264 21.4264 12.1843C22.2495 11.8699 22.9642 11.244 23.4388 10.422C24.4502 8.67038 24.0568 6.54324 22.562 5.68016ZM22.0528 9.6217C21.7614 10.1264 21.3362 10.5055 20.8554 10.6891C20.433 10.8506 20.0205 10.8357 19.6943 10.6473C19.368 10.4588 19.1491 10.1093 19.0774 9.66266C18.9961 9.15444 19.1117 8.59661 19.4032 8.09214C19.6946 7.58768 20.1198 7.20836 20.6006 7.02465C20.7818 6.95329 20.9745 6.91564 21.1692 6.91356C21.3768 6.91129 21.5812 6.96406 21.7617 7.06651C22.4799 7.48089 22.6132 8.65113 22.0528 9.6217ZM14.8653 7.22766C15.0573 7.26953 15.2533 7.29067 15.4499 7.29073C16.1061 7.29073 16.7553 7.0542 17.3234 6.59991C18.0116 6.04973 18.5017 5.23586 18.7033 4.30826C19.1329 2.33186 18.1102 0.425634 16.4235 0.0590135C15.5754 -0.125347 14.7024 0.0975261 13.9654 0.686769C13.2772 1.23695 12.7871 2.05082 12.5855 2.97837C12.1559 4.95477 13.1786 6.86099 14.8653 7.22766ZM14.1495 3.31838C14.2733 2.74884 14.5628 2.25803 14.9648 1.93688C15.2435 1.71411 15.5495 1.59772 15.8469 1.59772C15.9265 1.59757 16.0059 1.60596 16.0836 1.62273C16.8939 1.79888 17.3773 2.87314 17.1393 3.96799C17.0155 4.53753 16.7259 5.02834 16.3241 5.34955C15.9709 5.63194 15.5738 5.74338 15.2053 5.6634C14.3949 5.48749 13.9115 4.41334 14.1495 3.31838Z" fill="#373737"/>
</svg>
